<mxfile host="app.diagrams.net" modified="2023-07-04T14:37:59.249Z" agent="Mozilla/5.0 (Windows NT 10.0; Win64; x64) AppleWebKit/537.36 (KHTML, like Gecko) Chrome/114.0.0.0 Safari/537.36" etag="WaLr4n5d8_ul5tS60AWC" version="21.5.2" type="github">
  <diagram name="Page-1" id="jbe4SHq8ROqDPcI5jyzg">
    <mxGraphModel dx="1050" dy="580" grid="1" gridSize="10" guides="1" tooltips="1" connect="1" arrows="1" fold="1" page="1" pageScale="1" pageWidth="850" pageHeight="1100" math="0" shadow="0">
      <root>
        <mxCell id="0" />
        <mxCell id="1" parent="0" />
        <mxCell id="BwJxzXzOPCKpJ1tvFv18-1" value="&lt;b&gt;Users Service&lt;/b&gt;" style="rounded=0;whiteSpace=wrap;html=1;fillColor=#76608a;strokeColor=#432D57;fontColor=#ffffff;" parent="1" vertex="1">
          <mxGeometry x="120" y="120" width="600" height="60" as="geometry" />
        </mxCell>
        <mxCell id="PnSxVfsvghSWBo1CDGgf-1" value="Path" style="rounded=0;whiteSpace=wrap;html=1;fillColor=#647687;strokeColor=#314354;fontColor=#ffffff;" parent="1" vertex="1">
          <mxGeometry x="120" y="190" width="120" height="40" as="geometry" />
        </mxCell>
        <mxCell id="PnSxVfsvghSWBo1CDGgf-2" value="Method" style="rounded=0;whiteSpace=wrap;html=1;fillColor=#647687;strokeColor=#314354;fontColor=#ffffff;" parent="1" vertex="1">
          <mxGeometry x="280" y="190" width="120" height="40" as="geometry" />
        </mxCell>
        <mxCell id="PnSxVfsvghSWBo1CDGgf-3" value="Body?" style="rounded=0;whiteSpace=wrap;html=1;fillColor=#647687;strokeColor=#314354;fontColor=#ffffff;" parent="1" vertex="1">
          <mxGeometry x="440" y="190" width="120" height="40" as="geometry" />
        </mxCell>
        <mxCell id="PnSxVfsvghSWBo1CDGgf-4" value="Goal" style="rounded=0;whiteSpace=wrap;html=1;fillColor=#647687;strokeColor=#314354;fontColor=#ffffff;" parent="1" vertex="1">
          <mxGeometry x="600" y="190" width="120" height="40" as="geometry" />
        </mxCell>
        <mxCell id="PnSxVfsvghSWBo1CDGgf-5" value="/welcome" style="rounded=0;whiteSpace=wrap;html=1;" parent="1" vertex="1">
          <mxGeometry x="120" y="250" width="120" height="40" as="geometry" />
        </mxCell>
        <mxCell id="PnSxVfsvghSWBo1CDGgf-7" value="GET" style="whiteSpace=wrap;html=1;" parent="1" vertex="1">
          <mxGeometry x="280" y="250" width="120" height="40" as="geometry" />
        </mxCell>
        <mxCell id="PnSxVfsvghSWBo1CDGgf-8" value="-" style="rounded=0;whiteSpace=wrap;html=1;" parent="1" vertex="1">
          <mxGeometry x="440" y="250" width="120" height="40" as="geometry" />
        </mxCell>
        <mxCell id="PnSxVfsvghSWBo1CDGgf-9" value="Show welcome page" style="rounded=0;whiteSpace=wrap;html=1;" parent="1" vertex="1">
          <mxGeometry x="600" y="250" width="120" height="40" as="geometry" />
        </mxCell>
        <mxCell id="PnSxVfsvghSWBo1CDGgf-10" value="/github/callback" style="rounded=0;whiteSpace=wrap;html=1;" parent="1" vertex="1">
          <mxGeometry x="120" y="310" width="120" height="40" as="geometry" />
        </mxCell>
        <mxCell id="PnSxVfsvghSWBo1CDGgf-11" value="authenticatte with github" style="rounded=0;whiteSpace=wrap;html=1;" parent="1" vertex="1">
          <mxGeometry x="600" y="310" width="120" height="40" as="geometry" />
        </mxCell>
        <mxCell id="PnSxVfsvghSWBo1CDGgf-12" value="GET" style="rounded=0;whiteSpace=wrap;html=1;" parent="1" vertex="1">
          <mxGeometry x="280" y="310" width="120" height="40" as="geometry" />
        </mxCell>
        <mxCell id="PnSxVfsvghSWBo1CDGgf-13" value="-" style="rounded=0;whiteSpace=wrap;html=1;" parent="1" vertex="1">
          <mxGeometry x="440" y="310" width="120" height="40" as="geometry" />
        </mxCell>
        <mxCell id="PnSxVfsvghSWBo1CDGgf-14" value="/dashboard" style="rounded=0;whiteSpace=wrap;html=1;" parent="1" vertex="1">
          <mxGeometry x="120" y="370" width="120" height="40" as="geometry" />
        </mxCell>
        <mxCell id="PnSxVfsvghSWBo1CDGgf-15" value="GET" style="rounded=0;whiteSpace=wrap;html=1;" parent="1" vertex="1">
          <mxGeometry x="280" y="370" width="120" height="40" as="geometry" />
        </mxCell>
        <mxCell id="PnSxVfsvghSWBo1CDGgf-16" value="-" style="rounded=0;whiteSpace=wrap;html=1;" parent="1" vertex="1">
          <mxGeometry x="440" y="370" width="120" height="40" as="geometry" />
        </mxCell>
        <mxCell id="PnSxVfsvghSWBo1CDGgf-17" value="Show dashboard page" style="rounded=0;whiteSpace=wrap;html=1;" parent="1" vertex="1">
          <mxGeometry x="600" y="370" width="120" height="40" as="geometry" />
        </mxCell>
      </root>
    </mxGraphModel>
  </diagram>
</mxfile>
